<?xml version="1.0" encoding="utf-8" ?>
<svg baseProfile="full" height="57.5mm" version="1.1" viewBox="0,0,306.20000000000005,57.5" width="306.20000000000005mm" xmlns="http://www.w3.org/2000/svg" xmlns:ev="http://www.w3.org/2001/xml-events" xmlns:xlink="http://www.w3.org/1999/xlink"><defs /><rect fill="#FFFFFF" height="57.5" width="306.20000000000005" x="0" y="0" /><text fill="#000000" style="font-size:6px; font-family:Arial; font-weight:bold;" x="10" y="10" /><text fill="#000000" style="font-size:3px; font-family:Arial;" x="10" y="14.4">2024: 210 hours</text><text fill="#000000" style="font-size:2.5px; font-family:Arial" x="10" y="18.3">Jan</text><rect fill="#EBEDF0" height="4" rx="1" ry="1" width="4" x="10" y="19.7"><title>2024-01-01</title></rect><rect fill="#EBEDF0" height="4" rx="1" ry="1" width="4" x="10" y="25.1"><title>2024-01-02</title></rect><rect fill="#EBEDF0" height="4" rx="1" ry="1" width="4" x="10" y="30.5"><title>2024-01-03</title></rect><rect fill="#EBEDF0" height="4" rx="1" ry="1" width="4" x="10" y="35.9"><title>2024-01-04</title></rect><rect fill="#EBEDF0" height="4" rx="1" ry="1" width="4" x="10" y="41.300000000000004"><title>2024-01-05</title></rect><rect fill="#EBEDF0" height="4" rx="1" ry="1" width="4" x="10" y="46.699999999999996"><title>2024-01-06</title></rect><rect fill="#EBEDF0" height="4" rx="1" ry="1" width="4" x="10" y="52.1"><title>2024-01-07</title></rect><rect fill="#EBEDF0" height="4" rx="1" ry="1" width="4" x="15.4" y="19.7"><title>2024-01-08</title></rect><rect fill="#EBEDF0" height="4" rx="1" ry="1" width="4" x="15.4" y="25.1"><title>2024-01-09</title></rect><rect fill="#EBEDF0" height="4" rx="1" ry="1" width="4" x="15.4" y="30.5"><title>2024-01-10</title></rect><rect fill="#EBEDF0" height="4" rx="1" ry="1" width="4" x="15.4" y="35.9"><title>2024-01-11</title></rect><rect fill="#EBEDF0" height="4" rx="1" ry="1" width="4" x="15.4" y="41.300000000000004"><title>2024-01-12</title></rect><rect fill="#64bc69" height="4" rx="1" ry="1" width="4" x="15.4" y="46.699999999999996"><title>2024-01-13 94.28 mins</title></rect><rect fill="#EBEDF0" height="4" rx="1" ry="1" width="4" x="15.4" y="52.1"><title>2024-01-14</title></rect><rect fill="#EBEDF0" height="4" rx="1" ry="1" width="4" x="20.8" y="19.7"><title>2024-01-15</title></rect><rect fill="#abe7ad" height="4" rx="1" ry="1" width="4" x="20.8" y="25.1"><title>2024-01-16 2.42 mins</title></rect><rect fill="#67bf6c" height="4" rx="1" ry="1" width="4" x="20.8" y="30.5"><title>2024-01-17 40.6 mins</title></rect><rect fill="#EBEDF0" height="4" rx="1" ry="1" width="4" x="20.8" y="35.9"><title>2024-01-18</title></rect><rect fill="#aae6ac" height="4" rx="1" ry="1" width="4" x="20.8" y="41.300000000000004"><title>2024-01-19 9.47 mins</title></rect><rect fill="#EBEDF0" height="4" rx="1" ry="1" width="4" x="20.8" y="46.699999999999996"><title>2024-01-20</title></rect><rect fill="#EBEDF0" height="4" rx="1" ry="1" width="4" x="20.8" y="52.1"><title>2024-01-21</title></rect><rect fill="#EBEDF0" height="4" rx="1" ry="1" width="4" x="26.200000000000003" y="19.7"><title>2024-01-22</title></rect><rect fill="#EBEDF0" height="4" rx="1" ry="1" width="4" x="26.200000000000003" y="25.1"><title>2024-01-23</title></rect><rect fill="#EBEDF0" height="4" rx="1" ry="1" width="4" x="26.200000000000003" y="30.5"><title>2024-01-24</title></rect><rect fill="#EBEDF0" height="4" rx="1" ry="1" width="4" x="26.200000000000003" y="35.9"><title>2024-01-25</title></rect><rect fill="#EBEDF0" height="4" rx="1" ry="1" width="4" x="26.200000000000003" y="41.300000000000004"><title>2024-01-26</title></rect><rect fill="#EBEDF0" height="4" rx="1" ry="1" width="4" x="26.200000000000003" y="46.699999999999996"><title>2024-01-27</title></rect><rect fill="#ace7ae" height="4" rx="1" ry="1" width="4" x="26.200000000000003" y="52.1"><title>2024-01-28 0.07 mins</title></rect><rect fill="#EBEDF0" height="4" rx="1" ry="1" width="4" x="31.6" y="19.7"><title>2024-01-29</title></rect><rect fill="#ace7ae" height="4" rx="1" ry="1" width="4" x="31.6" y="25.1"><title>2024-01-30 0.2 mins</title></rect><rect fill="#ace7ae" height="4" rx="1" ry="1" width="4" x="31.6" y="30.5"><title>2024-01-31 0.47 mins</title></rect><rect fill="#EBEDF0" height="4" rx="1" ry="1" width="4" x="31.6" y="35.9"><title>2024-02-01</title></rect><rect fill="#EBEDF0" height="4" rx="1" ry="1" width="4" x="31.6" y="41.300000000000004"><title>2024-02-02</title></rect><rect fill="#EBEDF0" height="4" rx="1" ry="1" width="4" x="31.6" y="46.699999999999996"><title>2024-02-03</title></rect><rect fill="#EBEDF0" height="4" rx="1" ry="1" width="4" x="31.6" y="52.1"><title>2024-02-04</title></rect><text fill="#000000" style="font-size:2.5px; font-family:Arial" x="37.0" y="18.3">Feb</text><rect fill="#EBEDF0" height="4" rx="1" ry="1" width="4" x="37.0" y="19.7"><title>2024-02-05</title></rect><rect fill="#EBEDF0" height="4" rx="1" ry="1" width="4" x="37.0" y="25.1"><title>2024-02-06</title></rect><rect fill="#EBEDF0" height="4" rx="1" ry="1" width="4" x="37.0" y="30.5"><title>2024-02-07</title></rect><rect fill="#ace7ae" height="4" rx="1" ry="1" width="4" x="37.0" y="35.9"><title>2024-02-08 0.45 mins</title></rect><rect fill="#66be6b" height="4" rx="1" ry="1" width="4" x="37.0" y="41.300000000000004"><title>2024-02-09 55.75 mins</title></rect><rect fill="#65bd6a" height="4" rx="1" ry="1" width="4" x="37.0" y="46.699999999999996"><title>2024-02-10 80.25 mins</title></rect><rect fill="#67bf6c" height="4" rx="1" ry="1" width="4" x="37.0" y="52.1"><title>2024-02-11 43.3 mins</title></rect><rect fill="#EBEDF0" height="4" rx="1" ry="1" width="4" x="42.4" y="19.7"><title>2024-02-12</title></rect><rect fill="#EBEDF0" height="4" rx="1" ry="1" width="4" x="42.4" y="25.1"><title>2024-02-13</title></rect><rect fill="#EBEDF0" height="4" rx="1" ry="1" width="4" x="42.4" y="30.5"><title>2024-02-14</title></rect><rect fill="#EBEDF0" height="4" rx="1" ry="1" width="4" x="42.4" y="35.9"><title>2024-02-15</title></rect><rect fill="#EBEDF0" height="4" rx="1" ry="1" width="4" x="42.4" y="41.300000000000004"><title>2024-02-16</title></rect><rect fill="#EBEDF0" height="4" rx="1" ry="1" width="4" x="42.4" y="46.699999999999996"><title>2024-02-17</title></rect><rect fill="#EBEDF0" height="4" rx="1" ry="1" width="4" x="42.4" y="52.1"><title>2024-02-18</title></rect><rect fill="#a9e5ab" height="4" rx="1" ry="1" width="4" x="47.8" y="19.7"><title>2024-02-19 15.85 mins</title></rect><rect fill="#EBEDF0" height="4" rx="1" ry="1" width="4" x="47.8" y="25.1"><title>2024-02-20</title></rect><rect fill="#EBEDF0" height="4" rx="1" ry="1" width="4" x="47.8" y="30.5"><title>2024-02-21</title></rect><rect fill="#549F57" height="4" rx="1" ry="1" width="4" x="47.8" y="35.9"><title>2024-02-22 227.9 mins</title></rect><rect fill="#EBEDF0" height="4" rx="1" ry="1" width="4" x="47.8" y="41.300000000000004"><title>2024-02-23</title></rect><rect fill="#549F57" height="4" rx="1" ry="1" width="4" x="47.8" y="46.699999999999996"><title>2024-02-24 126.12 mins</title></rect><rect fill="#EBEDF0" height="4" rx="1" ry="1" width="4" x="47.8" y="52.1"><title>2024-02-25</title></rect><rect fill="#EBEDF0" height="4" rx="1" ry="1" width="4" x="53.199999999999996" y="19.7"><title>2024-02-26</title></rect><rect fill="#ace7ae" height="4" rx="1" ry="1" width="4" x="53.199999999999996" y="25.1"><title>2024-02-27 0.05 mins</title></rect><rect fill="#66be6b" height="4" rx="1" ry="1" width="4" x="53.199999999999996" y="30.5"><title>2024-02-28 61.35 mins</title></rect><rect fill="#65bd6a" height="4" rx="1" ry="1" width="4" x="53.199999999999996" y="35.9"><title>2024-02-29 72.3 mins</title></rect><rect fill="#a8e5aa" height="4" rx="1" ry="1" width="4" x="53.199999999999996" y="41.300000000000004"><title>2024-03-01 20.82 mins</title></rect><rect fill="#ace7ae" height="4" rx="1" ry="1" width="4" x="53.199999999999996" y="46.699999999999996"><title>2024-03-02 0.03 mins</title></rect><rect fill="#a6e4a8" height="4" rx="1" ry="1" width="4" x="53.199999999999996" y="52.1"><title>2024-03-03 29.68 mins</title></rect><text fill="#000000" style="font-size:2.5px; font-family:Arial" x="58.599999999999994" y="18.3">Mar</text><rect fill="#abe7ad" height="4" rx="1" ry="1" width="4" x="58.599999999999994" y="19.7"><title>2024-03-04 3.87 mins</title></rect><rect fill="#EBEDF0" height="4" rx="1" ry="1" width="4" x="58.599999999999994" y="25.1"><title>2024-03-05</title></rect><rect fill="#67bf6b" height="4" rx="1" ry="1" width="4" x="58.599999999999994" y="30.5"><title>2024-03-06 45.97 mins</title></rect><rect fill="#ace7ae" height="4" rx="1" ry="1" width="4" x="58.599999999999994" y="35.9"><title>2024-03-07 0.03 mins</title></rect><rect fill="#EBEDF0" height="4" rx="1" ry="1" width="4" x="58.599999999999994" y="41.300000000000004"><title>2024-03-08</title></rect><rect fill="#EBEDF0" height="4" rx="1" ry="1" width="4" x="58.599999999999994" y="46.699999999999996"><title>2024-03-09</title></rect><rect fill="#EBEDF0" height="4" rx="1" ry="1" width="4" x="58.599999999999994" y="52.1"><title>2024-03-10</title></rect><rect fill="#EBEDF0" height="4" rx="1" ry="1" width="4" x="63.99999999999999" y="19.7"><title>2024-03-11</title></rect><rect fill="#EBEDF0" height="4" rx="1" ry="1" width="4" x="63.99999999999999" y="25.1"><title>2024-03-12</title></rect><rect fill="#ace7ae" height="4" rx="1" ry="1" width="4" x="63.99999999999999" y="30.5"><title>2024-03-13 0.18 mins</title></rect><rect fill="#aae6ac" height="4" rx="1" ry="1" width="4" x="63.99999999999999" y="35.9"><title>2024-03-14 8.18 mins</title></rect><rect fill="#EBEDF0" height="4" rx="1" ry="1" width="4" x="63.99999999999999" y="41.300000000000004"><title>2024-03-15</title></rect><rect fill="#EBEDF0" height="4" rx="1" ry="1" width="4" x="63.99999999999999" y="46.699999999999996"><title>2024-03-16</title></rect><rect fill="#EBEDF0" height="4" rx="1" ry="1" width="4" x="63.99999999999999" y="52.1"><title>2024-03-17</title></rect><rect fill="#EBEDF0" height="4" rx="1" ry="1" width="4" x="69.39999999999999" y="19.7"><title>2024-03-18</title></rect><rect fill="#EBEDF0" height="4" rx="1" ry="1" width="4" x="69.39999999999999" y="25.1"><title>2024-03-19</title></rect><rect fill="#ace7ae" height="4" rx="1" ry="1" width="4" x="69.39999999999999" y="30.5"><title>2024-03-20 1.12 mins</title></rect><rect fill="#a9e6ac" height="4" rx="1" ry="1" width="4" x="69.39999999999999" y="35.9"><title>2024-03-21 11.78 mins</title></rect><rect fill="#67bf6c" height="4" rx="1" ry="1" width="4" x="69.39999999999999" y="41.300000000000004"><title>2024-03-22 32.22 mins</title></rect><rect fill="#ace7ae" height="4" rx="1" ry="1" width="4" x="69.39999999999999" y="46.699999999999996"><title>2024-03-23 0.03 mins</title></rect><rect fill="#EBEDF0" height="4" rx="1" ry="1" width="4" x="69.39999999999999" y="52.1"><title>2024-03-24</title></rect><rect fill="#aae6ac" height="4" rx="1" ry="1" width="4" x="74.8" y="19.7"><title>2024-03-25 11.43 mins</title></rect><rect fill="#EBEDF0" height="4" rx="1" ry="1" width="4" x="74.8" y="25.1"><title>2024-03-26</title></rect><rect fill="#EBEDF0" height="4" rx="1" ry="1" width="4" x="74.8" y="30.5"><title>2024-03-27</title></rect><rect fill="#EBEDF0" height="4" rx="1" ry="1" width="4" x="74.8" y="35.9"><title>2024-03-28</title></rect><rect fill="#EBEDF0" height="4" rx="1" ry="1" width="4" x="74.8" y="41.300000000000004"><title>2024-03-29</title></rect><rect fill="#EBEDF0" height="4" rx="1" ry="1" width="4" x="74.8" y="46.699999999999996"><title>2024-03-30</title></rect><rect fill="#ace7ae" height="4" rx="1" ry="1" width="4" x="74.8" y="52.1"><title>2024-03-31 1.03 mins</title></rect><text fill="#000000" style="font-size:2.5px; font-family:Arial" x="80.2" y="18.3">Apr</text><rect fill="#EBEDF0" height="4" rx="1" ry="1" width="4" x="80.2" y="19.7"><title>2024-04-01</title></rect><rect fill="#EBEDF0" height="4" rx="1" ry="1" width="4" x="80.2" y="25.1"><title>2024-04-02</title></rect><rect fill="#EBEDF0" height="4" rx="1" ry="1" width="4" x="80.2" y="30.5"><title>2024-04-03</title></rect><rect fill="#EBEDF0" height="4" rx="1" ry="1" width="4" x="80.2" y="35.9"><title>2024-04-04</title></rect><rect fill="#EBEDF0" height="4" rx="1" ry="1" width="4" x="80.2" y="41.300000000000004"><title>2024-04-05</title></rect><rect fill="#EBEDF0" height="4" rx="1" ry="1" width="4" x="80.2" y="46.699999999999996"><title>2024-04-06</title></rect><rect fill="#67bf6c" height="4" rx="1" ry="1" width="4" x="80.2" y="52.1"><title>2024-04-07 44.12 mins</title></rect><rect fill="#aae6ac" height="4" rx="1" ry="1" width="4" x="85.60000000000001" y="19.7"><title>2024-04-08 9.03 mins</title></rect><rect fill="#a9e6ab" height="4" rx="1" ry="1" width="4" x="85.60000000000001" y="25.1"><title>2024-04-09 14.9 mins</title></rect><rect fill="#EBEDF0" height="4" rx="1" ry="1" width="4" x="85.60000000000001" y="30.5"><title>2024-04-10</title></rect><rect fill="#EBEDF0" height="4" rx="1" ry="1" width="4" x="85.60000000000001" y="35.9"><title>2024-04-11</title></rect><rect fill="#EBEDF0" height="4" rx="1" ry="1" width="4" x="85.60000000000001" y="41.300000000000004"><title>2024-04-12</title></rect><rect fill="#ace7ae" height="4" rx="1" ry="1" width="4" x="85.60000000000001" y="46.699999999999996"><title>2024-04-13 0.18 mins</title></rect><rect fill="#66be6b" height="4" rx="1" ry="1" width="4" x="85.60000000000001" y="52.1"><title>2024-04-14 52.02 mins</title></rect><rect fill="#EBEDF0" height="4" rx="1" ry="1" width="4" x="91.00000000000001" y="19.7"><title>2024-04-15</title></rect><rect fill="#EBEDF0" height="4" rx="1" ry="1" width="4" x="91.00000000000001" y="25.1"><title>2024-04-16</title></rect><rect fill="#a9e6ab" height="4" rx="1" ry="1" width="4" x="91.00000000000001" y="30.5"><title>2024-04-17 14.48 mins</title></rect><rect fill="#a9e6ab" height="4" rx="1" ry="1" width="4" x="91.00000000000001" y="35.9"><title>2024-04-18 13.72 mins</title></rect><rect fill="#ace7ae" height="4" rx="1" ry="1" width="4" x="91.00000000000001" y="41.300000000000004"><title>2024-04-19 0.02 mins</title></rect><rect fill="#EBEDF0" height="4" rx="1" ry="1" width="4" x="91.00000000000001" y="46.699999999999996"><title>2024-04-20</title></rect><rect fill="#EBEDF0" height="4" rx="1" ry="1" width="4" x="91.00000000000001" y="52.1"><title>2024-04-21</title></rect><rect fill="#aae6ac" height="4" rx="1" ry="1" width="4" x="96.40000000000002" y="19.7"><title>2024-04-22 10.68 mins</title></rect><rect fill="#ace7ae" height="4" rx="1" ry="1" width="4" x="96.40000000000002" y="25.1"><title>2024-04-23 0.1 mins</title></rect><rect fill="#EBEDF0" height="4" rx="1" ry="1" width="4" x="96.40000000000002" y="30.5"><title>2024-04-24</title></rect><rect fill="#EBEDF0" height="4" rx="1" ry="1" width="4" x="96.40000000000002" y="35.9"><title>2024-04-25</title></rect><rect fill="#EBEDF0" height="4" rx="1" ry="1" width="4" x="96.40000000000002" y="41.300000000000004"><title>2024-04-26</title></rect><rect fill="#ace7ae" height="4" rx="1" ry="1" width="4" x="96.40000000000002" y="46.699999999999996"><title>2024-04-27 0.15 mins</title></rect><rect fill="#EBEDF0" height="4" rx="1" ry="1" width="4" x="96.40000000000002" y="52.1"><title>2024-04-28</title></rect><rect fill="#EBEDF0" height="4" rx="1" ry="1" width="4" x="101.80000000000003" y="19.7"><title>2024-04-29</title></rect><rect fill="#EBEDF0" height="4" rx="1" ry="1" width="4" x="101.80000000000003" y="25.1"><title>2024-04-30</title></rect><rect fill="#67bf6c" height="4" rx="1" ry="1" width="4" x="101.80000000000003" y="30.5"><title>2024-05-01 42.88 mins</title></rect><rect fill="#ace7ae" height="4" rx="1" ry="1" width="4" x="101.80000000000003" y="35.9"><title>2024-05-02 0.1 mins</title></rect><rect fill="#EBEDF0" height="4" rx="1" ry="1" width="4" x="101.80000000000003" y="41.300000000000004"><title>2024-05-03</title></rect><rect fill="#EBEDF0" height="4" rx="1" ry="1" width="4" x="101.80000000000003" y="46.699999999999996"><title>2024-05-04</title></rect><rect fill="#549F57" height="4" rx="1" ry="1" width="4" x="101.80000000000003" y="52.1"><title>2024-05-05 150.85 mins</title></rect><text fill="#000000" style="font-size:2.5px; font-family:Arial" x="107.20000000000003" y="18.3">May</text><rect fill="#64bc69" height="4" rx="1" ry="1" width="4" x="107.20000000000003" y="19.7"><title>2024-05-06 90.18 mins</title></rect><rect fill="#a6e4a8" height="4" rx="1" ry="1" width="4" x="107.20000000000003" y="25.1"><title>2024-05-07 29.12 mins</title></rect><rect fill="#549F57" height="4" rx="1" ry="1" width="4" x="107.20000000000003" y="30.5"><title>2024-05-08 188.88 mins</title></rect><rect fill="#549F57" height="4" rx="1" ry="1" width="4" x="107.20000000000003" y="35.9"><title>2024-05-09 140.8 mins</title></rect><rect fill="#549F57" height="4" rx="1" ry="1" width="4" x="107.20000000000003" y="41.300000000000004"><title>2024-05-10 103.27 mins</title></rect><rect fill="#aae6ac" height="4" rx="1" ry="1" width="4" x="107.20000000000003" y="46.699999999999996"><title>2024-05-11 10.6 mins</title></rect><rect fill="#a6e4a8" height="4" rx="1" ry="1" width="4" x="107.20000000000003" y="52.1"><title>2024-05-12 27.4 mins</title></rect><rect fill="#a9e6ac" height="4" rx="1" ry="1" width="4" x="112.60000000000004" y="19.7"><title>2024-05-13 11.67 mins</title></rect><rect fill="#67bf6c" height="4" rx="1" ry="1" width="4" x="112.60000000000004" y="25.1"><title>2024-05-14 36.82 mins</title></rect><rect fill="#64bc69" height="4" rx="1" ry="1" width="4" x="112.60000000000004" y="30.5"><title>2024-05-15 88.43 mins</title></rect><rect fill="#64bc69" height="4" rx="1" ry="1" width="4" x="112.60000000000004" y="35.9"><title>2024-05-16 98.65 mins</title></rect><rect fill="#66be6b" height="4" rx="1" ry="1" width="4" x="112.60000000000004" y="41.300000000000004"><title>2024-05-17 48.0 mins</title></rect><rect fill="#a6e4a8" height="4" rx="1" ry="1" width="4" x="112.60000000000004" y="46.699999999999996"><title>2024-05-18 27.07 mins</title></rect><rect fill="#EBEDF0" height="4" rx="1" ry="1" width="4" x="112.60000000000004" y="52.1"><title>2024-05-19</title></rect><rect fill="#EBEDF0" height="4" rx="1" ry="1" width="4" x="118.00000000000004" y="19.7"><title>2024-05-20</title></rect><rect fill="#EBEDF0" height="4" rx="1" ry="1" width="4" x="118.00000000000004" y="25.1"><title>2024-05-21</title></rect><rect fill="#EBEDF0" height="4" rx="1" ry="1" width="4" x="118.00000000000004" y="30.5"><title>2024-05-22</title></rect><rect fill="#EBEDF0" height="4" rx="1" ry="1" width="4" x="118.00000000000004" y="35.9"><title>2024-05-23</title></rect><rect fill="#ace7ae" height="4" rx="1" ry="1" width="4" x="118.00000000000004" y="41.300000000000004"><title>2024-05-24 0.43 mins</title></rect><rect fill="#EBEDF0" height="4" rx="1" ry="1" width="4" x="118.00000000000004" y="46.699999999999996"><title>2024-05-25</title></rect><rect fill="#EBEDF0" height="4" rx="1" ry="1" width="4" x="118.00000000000004" y="52.1"><title>2024-05-26</title></rect><rect fill="#EBEDF0" height="4" rx="1" ry="1" width="4" x="123.40000000000005" y="19.7"><title>2024-05-27</title></rect><rect fill="#65bd69" height="4" rx="1" ry="1" width="4" x="123.40000000000005" y="25.1"><title>2024-05-28 81.57 mins</title></rect><rect fill="#a9e5ab" height="4" rx="1" ry="1" width="4" x="123.40000000000005" y="30.5"><title>2024-05-29 15.65 mins</title></rect><rect fill="#a6e4a9" height="4" rx="1" ry="1" width="4" x="123.40000000000005" y="35.9"><title>2024-05-30 25.9 mins</title></rect><rect fill="#EBEDF0" height="4" rx="1" ry="1" width="4" x="123.40000000000005" y="41.300000000000004"><title>2024-05-31</title></rect><rect fill="#65bd6a" height="4" rx="1" ry="1" width="4" x="123.40000000000005" y="46.699999999999996"><title>2024-06-01 67.85 mins</title></rect><rect fill="#ace7ae" height="4" rx="1" ry="1" width="4" x="123.40000000000005" y="52.1"><title>2024-06-02 0.63 mins</title></rect><text fill="#000000" style="font-size:2.5px; font-family:Arial" x="128.80000000000004" y="18.3">Jun</text><rect fill="#EBEDF0" height="4" rx="1" ry="1" width="4" x="128.80000000000004" y="19.7"><title>2024-06-03</title></rect><rect fill="#67bf6c" height="4" rx="1" ry="1" width="4" x="128.80000000000004" y="25.1"><title>2024-06-04 40.83 mins</title></rect><rect fill="#a8e5aa" height="4" rx="1" ry="1" width="4" x="128.80000000000004" y="30.5"><title>2024-06-05 18.93 mins</title></rect><rect fill="#64bc69" height="4" rx="1" ry="1" width="4" x="128.80000000000004" y="35.9"><title>2024-06-06 94.98 mins</title></rect><rect fill="#ace7ae" height="4" rx="1" ry="1" width="4" x="128.80000000000004" y="41.300000000000004"><title>2024-06-07 0.12 mins</title></rect><rect fill="#a7e5a9" height="4" rx="1" ry="1" width="4" x="128.80000000000004" y="46.699999999999996"><title>2024-06-08 24.43 mins</title></rect><rect fill="#66be6b" height="4" rx="1" ry="1" width="4" x="128.80000000000004" y="52.1"><title>2024-06-09 49.43 mins</title></rect><rect fill="#a8e5aa" height="4" rx="1" ry="1" width="4" x="134.20000000000005" y="19.7"><title>2024-06-10 18.38 mins</title></rect><rect fill="#a9e6ab" height="4" rx="1" ry="1" width="4" x="134.20000000000005" y="25.1"><title>2024-06-11 12.48 mins</title></rect><rect fill="#a7e5a9" height="4" rx="1" ry="1" width="4" x="134.20000000000005" y="30.5"><title>2024-06-12 22.07 mins</title></rect><rect fill="#65bd6a" height="4" rx="1" ry="1" width="4" x="134.20000000000005" y="35.9"><title>2024-06-13 74.13 mins</title></rect><rect fill="#66be6b" height="4" rx="1" ry="1" width="4" x="134.20000000000005" y="41.300000000000004"><title>2024-06-14 58.52 mins</title></rect><rect fill="#a8e5aa" height="4" rx="1" ry="1" width="4" x="134.20000000000005" y="46.699999999999996"><title>2024-06-15 17.4 mins</title></rect><rect fill="#a8e5aa" height="4" rx="1" ry="1" width="4" x="134.20000000000005" y="52.1"><title>2024-06-16 17.35 mins</title></rect><rect fill="#549F57" height="4" rx="1" ry="1" width="4" x="139.60000000000005" y="19.7"><title>2024-06-17 163.52 mins</title></rect><rect fill="#549F57" height="4" rx="1" ry="1" width="4" x="139.60000000000005" y="25.1"><title>2024-06-18 122.28 mins</title></rect><rect fill="#67bf6c" height="4" rx="1" ry="1" width="4" x="139.60000000000005" y="30.5"><title>2024-06-19 31.35 mins</title></rect><rect fill="#66be6b" height="4" rx="1" ry="1" width="4" x="139.60000000000005" y="35.9"><title>2024-06-20 49.6 mins</title></rect><rect fill="#67bf6c" height="4" rx="1" ry="1" width="4" x="139.60000000000005" y="41.300000000000004"><title>2024-06-21 36.98 mins</title></rect><rect fill="#abe7ad" height="4" rx="1" ry="1" width="4" x="139.60000000000005" y="46.699999999999996"><title>2024-06-22 4.47 mins</title></rect><rect fill="#abe6ad" height="4" rx="1" ry="1" width="4" x="139.60000000000005" y="52.1"><title>2024-06-23 5.58 mins</title></rect><rect fill="#EBEDF0" height="4" rx="1" ry="1" width="4" x="145.00000000000006" y="19.7"><title>2024-06-24</title></rect><rect fill="#549F57" height="4" rx="1" ry="1" width="4" x="145.00000000000006" y="25.1"><title>2024-06-25 153.73 mins</title></rect><rect fill="#67bf6c" height="4" rx="1" ry="1" width="4" x="145.00000000000006" y="30.5"><title>2024-06-26 31.97 mins</title></rect><rect fill="#ace7ae" height="4" rx="1" ry="1" width="4" x="145.00000000000006" y="35.9"><title>2024-06-27 1.85 mins</title></rect><rect fill="#EBEDF0" height="4" rx="1" ry="1" width="4" x="145.00000000000006" y="41.300000000000004"><title>2024-06-28</title></rect><rect fill="#66be6a" height="4" rx="1" ry="1" width="4" x="145.00000000000006" y="46.699999999999996"><title>2024-06-29 63.15 mins</title></rect><rect fill="#aae6ac" height="4" rx="1" ry="1" width="4" x="145.00000000000006" y="52.1"><title>2024-06-30 8.82 mins</title></rect><text fill="#000000" style="font-size:2.5px; font-family:Arial" x="150.40000000000006" y="18.3">Jul</text><rect fill="#549F57" height="4" rx="1" ry="1" width="4" x="150.40000000000006" y="19.7"><title>2024-07-01 146.83 mins</title></rect><rect fill="#549F57" height="4" rx="1" ry="1" width="4" x="150.40000000000006" y="25.1"><title>2024-07-02 197.25 mins</title></rect><rect fill="#abe7ad" height="4" rx="1" ry="1" width="4" x="150.40000000000006" y="30.5"><title>2024-07-03 4.05 mins</title></rect><rect fill="#549F57" height="4" rx="1" ry="1" width="4" x="150.40000000000006" y="35.9"><title>2024-07-04 169.73 mins</title></rect><rect fill="#67bf6c" height="4" rx="1" ry="1" width="4" x="150.40000000000006" y="41.300000000000004"><title>2024-07-05 38.7 mins</title></rect><rect fill="#a6e4a8" height="4" rx="1" ry="1" width="4" x="150.40000000000006" y="46.699999999999996"><title>2024-07-06 29.52 mins</title></rect><rect fill="#a7e5a9" height="4" rx="1" ry="1" width="4" x="150.40000000000006" y="52.1"><title>2024-07-07 24.67 mins</title></rect><rect fill="#549F57" height="4" rx="1" ry="1" width="4" x="155.80000000000007" y="19.7"><title>2024-07-08 101.88 mins</title></rect><rect fill="#ace7ae" height="4" rx="1" ry="1" width="4" x="155.80000000000007" y="25.1"><title>2024-07-09 0.1 mins</title></rect><rect fill="#EBEDF0" height="4" rx="1" ry="1" width="4" x="155.80000000000007" y="30.5"><title>2024-07-10</title></rect><rect fill="#EBEDF0" height="4" rx="1" ry="1" width="4" x="155.80000000000007" y="35.9"><title>2024-07-11</title></rect><rect fill="#aae6ac" height="4" rx="1" ry="1" width="4" x="155.80000000000007" y="41.300000000000004"><title>2024-07-12 10.7 mins</title></rect><rect fill="#ace7ae" height="4" rx="1" ry="1" width="4" x="155.80000000000007" y="46.699999999999996"><title>2024-07-13 0.12 mins</title></rect><rect fill="#64bc69" height="4" rx="1" ry="1" width="4" x="155.80000000000007" y="52.1"><title>2024-07-14 91.65 mins</title></rect><rect fill="#549F57" height="4" rx="1" ry="1" width="4" x="161.20000000000007" y="19.7"><title>2024-07-15 114.83 mins</title></rect><rect fill="#abe6ad" height="4" rx="1" ry="1" width="4" x="161.20000000000007" y="25.1"><title>2024-07-16 6.5 mins</title></rect><rect fill="#EBEDF0" height="4" rx="1" ry="1" width="4" x="161.20000000000007" y="30.5"><title>2024-07-17</title></rect><rect fill="#EBEDF0" height="4" rx="1" ry="1" width="4" x="161.20000000000007" y="35.9"><title>2024-07-18</title></rect><rect fill="#ace7ae" height="4" rx="1" ry="1" width="4" x="161.20000000000007" y="41.300000000000004"><title>2024-07-19 2.15 mins</title></rect><rect fill="#EBEDF0" height="4" rx="1" ry="1" width="4" x="161.20000000000007" y="46.699999999999996"><title>2024-07-20</title></rect><rect fill="#67bf6c" height="4" rx="1" ry="1" width="4" x="161.20000000000007" y="52.1"><title>2024-07-21 42.17 mins</title></rect><rect fill="#65bd6a" height="4" rx="1" ry="1" width="4" x="166.60000000000008" y="19.7"><title>2024-07-22 76.93 mins</title></rect><rect fill="#67bf6c" height="4" rx="1" ry="1" width="4" x="166.60000000000008" y="25.1"><title>2024-07-23 34.05 mins</title></rect><rect fill="#549F57" height="4" rx="1" ry="1" width="4" x="166.60000000000008" y="30.5"><title>2024-07-24 516.0 mins</title></rect><rect fill="#65bd6a" height="4" rx="1" ry="1" width="4" x="166.60000000000008" y="35.9"><title>2024-07-25 77.28 mins</title></rect><rect fill="#549F57" height="4" rx="1" ry="1" width="4" x="166.60000000000008" y="41.300000000000004"><title>2024-07-26 189.52 mins</title></rect><rect fill="#66be6b" height="4" rx="1" ry="1" width="4" x="166.60000000000008" y="46.699999999999996"><title>2024-07-27 61.53 mins</title></rect><rect fill="#549F57" height="4" rx="1" ry="1" width="4" x="166.60000000000008" y="52.1"><title>2024-07-28 161.72 mins</title></rect><rect fill="#66be6a" height="4" rx="1" ry="1" width="4" x="172.00000000000009" y="19.7"><title>2024-07-29 64.73 mins</title></rect><rect fill="#66be6b" height="4" rx="1" ry="1" width="4" x="172.00000000000009" y="25.1"><title>2024-07-30 52.68 mins</title></rect><rect fill="#abe7ad" height="4" rx="1" ry="1" width="4" x="172.00000000000009" y="30.5"><title>2024-07-31 2.58 mins</title></rect><rect fill="#a8e5aa" height="4" rx="1" ry="1" width="4" x="172.00000000000009" y="35.9"><title>2024-08-01 17.17 mins</title></rect><rect fill="#549F57" height="4" rx="1" ry="1" width="4" x="172.00000000000009" y="41.300000000000004"><title>2024-08-02 109.23 mins</title></rect><rect fill="#ace7ae" height="4" rx="1" ry="1" width="4" x="172.00000000000009" y="46.699999999999996"><title>2024-08-03 0.32 mins</title></rect><rect fill="#EBEDF0" height="4" rx="1" ry="1" width="4" x="172.00000000000009" y="52.1"><title>2024-08-04</title></rect><text fill="#000000" style="font-size:2.5px; font-family:Arial" x="177.4000000000001" y="18.3">Aug</text><rect fill="#549F57" height="4" rx="1" ry="1" width="4" x="177.4000000000001" y="19.7"><title>2024-08-05 108.25 mins</title></rect><rect fill="#549F57" height="4" rx="1" ry="1" width="4" x="177.4000000000001" y="25.1"><title>2024-08-06 129.3 mins</title></rect><rect fill="#ace7ae" height="4" rx="1" ry="1" width="4" x="177.4000000000001" y="30.5"><title>2024-08-07 0.17 mins</title></rect><rect fill="#aae6ac" height="4" rx="1" ry="1" width="4" x="177.4000000000001" y="35.9"><title>2024-08-08 9.22 mins</title></rect><rect fill="#abe6ad" height="4" rx="1" ry="1" width="4" x="177.4000000000001" y="41.300000000000004"><title>2024-08-09 6.4 mins</title></rect><rect fill="#ace7ae" height="4" rx="1" ry="1" width="4" x="177.4000000000001" y="46.699999999999996"><title>2024-08-10 0.73 mins</title></rect><rect fill="#66be6b" height="4" rx="1" ry="1" width="4" x="177.4000000000001" y="52.1"><title>2024-08-11 55.58 mins</title></rect><rect fill="#ace7ae" height="4" rx="1" ry="1" width="4" x="182.8000000000001" y="19.7"><title>2024-08-12 0.32 mins</title></rect><rect fill="#549F57" height="4" rx="1" ry="1" width="4" x="182.8000000000001" y="25.1"><title>2024-08-13 478.32 mins</title></rect><rect fill="#a6e4a8" height="4" rx="1" ry="1" width="4" x="182.8000000000001" y="30.5"><title>2024-08-14 28.82 mins</title></rect><rect fill="#549F57" height="4" rx="1" ry="1" width="4" x="182.8000000000001" y="35.9"><title>2024-08-15 167.5 mins</title></rect><rect fill="#549F57" height="4" rx="1" ry="1" width="4" x="182.8000000000001" y="41.300000000000004"><title>2024-08-16 156.87 mins</title></rect><rect fill="#65bd6a" height="4" rx="1" ry="1" width="4" x="182.8000000000001" y="46.699999999999996"><title>2024-08-17 80.63 mins</title></rect><rect fill="#549F57" height="4" rx="1" ry="1" width="4" x="182.8000000000001" y="52.1"><title>2024-08-18 143.35 mins</title></rect><rect fill="#549F57" height="4" rx="1" ry="1" width="4" x="188.2000000000001" y="19.7"><title>2024-08-19 109.28 mins</title></rect><rect fill="#549F57" height="4" rx="1" ry="1" width="4" x="188.2000000000001" y="25.1"><title>2024-08-20 163.62 mins</title></rect><rect fill="#65bd6a" height="4" rx="1" ry="1" width="4" x="188.2000000000001" y="30.5"><title>2024-08-21 69.18 mins</title></rect><rect fill="#549F57" height="4" rx="1" ry="1" width="4" x="188.2000000000001" y="35.9"><title>2024-08-22 152.72 mins</title></rect><rect fill="#549F57" height="4" rx="1" ry="1" width="4" x="188.2000000000001" y="41.300000000000004"><title>2024-08-23 164.4 mins</title></rect><rect fill="#549F57" height="4" rx="1" ry="1" width="4" x="188.2000000000001" y="46.699999999999996"><title>2024-08-24 171.38 mins</title></rect><rect fill="#549F57" height="4" rx="1" ry="1" width="4" x="188.2000000000001" y="52.1"><title>2024-08-25 308.75 mins</title></rect><rect fill="#549F57" height="4" rx="1" ry="1" width="4" x="193.6000000000001" y="19.7"><title>2024-08-26 113.5 mins</title></rect><rect fill="#549F57" height="4" rx="1" ry="1" width="4" x="193.6000000000001" y="25.1"><title>2024-08-27 184.47 mins</title></rect><rect fill="#66be6b" height="4" rx="1" ry="1" width="4" x="193.6000000000001" y="30.5"><title>2024-08-28 58.78 mins</title></rect><rect fill="#549F57" height="4" rx="1" ry="1" width="4" x="193.6000000000001" y="35.9"><title>2024-08-29 184.28 mins</title></rect><rect fill="#a7e5a9" height="4" rx="1" ry="1" width="4" x="193.6000000000001" y="41.300000000000004"><title>2024-08-30 23.52 mins</title></rect><rect fill="#549F57" height="4" rx="1" ry="1" width="4" x="193.6000000000001" y="46.699999999999996"><title>2024-08-31 104.42 mins</title></rect><rect fill="#66be6b" height="4" rx="1" ry="1" width="4" x="193.6000000000001" y="52.1"><title>2024-09-01 62.12 mins</title></rect><text fill="#000000" style="font-size:2.5px; font-family:Arial" x="199.0000000000001" y="18.3">Sep</text><rect fill="#65bd6a" height="4" rx="1" ry="1" width="4" x="199.0000000000001" y="19.7"><title>2024-09-02 78.22 mins</title></rect><rect fill="#549F57" height="4" rx="1" ry="1" width="4" x="199.0000000000001" y="25.1"><title>2024-09-03 112.55 mins</title></rect><rect fill="#549F57" height="4" rx="1" ry="1" width="4" x="199.0000000000001" y="30.5"><title>2024-09-04 188.1 mins</title></rect><rect fill="#abe6ad" height="4" rx="1" ry="1" width="4" x="199.0000000000001" y="35.9"><title>2024-09-05 6.43 mins</title></rect><rect fill="#65bd6a" height="4" rx="1" ry="1" width="4" x="199.0000000000001" y="41.300000000000004"><title>2024-09-06 78.98 mins</title></rect><rect fill="#EBEDF0" height="4" rx="1" ry="1" width="4" x="199.0000000000001" y="46.699999999999996"><title>2024-09-07</title></rect><rect fill="#549F57" height="4" rx="1" ry="1" width="4" x="199.0000000000001" y="52.1"><title>2024-09-08 140.58 mins</title></rect><rect fill="#65bd6a" height="4" rx="1" ry="1" width="4" x="204.40000000000012" y="19.7"><title>2024-09-09 73.32 mins</title></rect><rect fill="#66be6b" height="4" rx="1" ry="1" width="4" x="204.40000000000012" y="25.1"><title>2024-09-10 47.55 mins</title></rect><rect fill="#549F57" height="4" rx="1" ry="1" width="4" x="204.40000000000012" y="30.5"><title>2024-09-11 113.93 mins</title></rect><rect fill="#549F57" height="4" rx="1" ry="1" width="4" x="204.40000000000012" y="35.9"><title>2024-09-12 194.5 mins</title></rect><rect fill="#64bc69" height="4" rx="1" ry="1" width="4" x="204.40000000000012" y="41.300000000000004"><title>2024-09-13 88.47 mins</title></rect><rect fill="#64bc69" height="4" rx="1" ry="1" width="4" x="204.40000000000012" y="46.699999999999996"><title>2024-09-14 97.63 mins</title></rect><rect fill="#549F57" height="4" rx="1" ry="1" width="4" x="204.40000000000012" y="52.1"><title>2024-09-15 142.45 mins</title></rect><rect fill="#66be6a" height="4" rx="1" ry="1" width="4" x="209.80000000000013" y="19.7"><title>2024-09-16 64.07 mins</title></rect><rect fill="#67bf6c" height="4" rx="1" ry="1" width="4" x="209.80000000000013" y="25.1"><title>2024-09-17 42.02 mins</title></rect><rect fill="#549F57" height="4" rx="1" ry="1" width="4" x="209.80000000000013" y="30.5"><title>2024-09-18 116.02 mins</title></rect><rect fill="#549F57" height="4" rx="1" ry="1" width="4" x="209.80000000000013" y="35.9"><title>2024-09-19 137.48 mins</title></rect><rect fill="#549F57" height="4" rx="1" ry="1" width="4" x="209.80000000000013" y="41.300000000000004"><title>2024-09-20 153.9 mins</title></rect><rect fill="#549F57" height="4" rx="1" ry="1" width="4" x="209.80000000000013" y="46.699999999999996"><title>2024-09-21 112.43 mins</title></rect><rect fill="#a6e4a8" height="4" rx="1" ry="1" width="4" x="209.80000000000013" y="52.1"><title>2024-09-22 28.28 mins</title></rect><rect fill="#549F57" height="4" rx="1" ry="1" width="4" x="215.20000000000013" y="19.7"><title>2024-09-23 111.07 mins</title></rect><rect fill="#66be6b" height="4" rx="1" ry="1" width="4" x="215.20000000000013" y="25.1"><title>2024-09-24 55.93 mins</title></rect><rect fill="#67bf6c" height="4" rx="1" ry="1" width="4" x="215.20000000000013" y="30.5"><title>2024-09-25 30.73 mins</title></rect><rect fill="#EBEDF0" height="4" rx="1" ry="1" width="4" x="215.20000000000013" y="35.9"><title>2024-09-26</title></rect><rect fill="#abe6ad" height="4" rx="1" ry="1" width="4" x="215.20000000000013" y="41.300000000000004"><title>2024-09-27 6.27 mins</title></rect><rect fill="#66be6b" height="4" rx="1" ry="1" width="4" x="215.20000000000013" y="46.699999999999996"><title>2024-09-28 50.62 mins</title></rect><rect fill="#64bc69" height="4" rx="1" ry="1" width="4" x="215.20000000000013" y="52.1"><title>2024-09-29 92.97 mins</title></rect><rect fill="#ace7ae" height="4" rx="1" ry="1" width="4" x="220.60000000000014" y="19.7"><title>2024-09-30 0.65 mins</title></rect><rect fill="#EBEDF0" height="4" rx="1" ry="1" width="4" x="220.60000000000014" y="25.1"><title>2024-10-01</title></rect><rect fill="#ace7ae" height="4" rx="1" ry="1" width="4" x="220.60000000000014" y="30.5"><title>2024-10-02 0.03 mins</title></rect><rect fill="#a9e6ab" height="4" rx="1" ry="1" width="4" x="220.60000000000014" y="35.9"><title>2024-10-03 15.1 mins</title></rect><rect fill="#ace7ae" height="4" rx="1" ry="1" width="4" x="220.60000000000014" y="41.300000000000004"><title>2024-10-04 0.03 mins</title></rect><rect fill="#EBEDF0" height="4" rx="1" ry="1" width="4" x="220.60000000000014" y="46.699999999999996"><title>2024-10-05</title></rect><rect fill="#EBEDF0" height="4" rx="1" ry="1" width="4" x="220.60000000000014" y="52.1"><title>2024-10-06</title></rect><text fill="#000000" style="font-size:2.5px; font-family:Arial" x="226.00000000000014" y="18.3">Oct</text><rect fill="#EBEDF0" height="4" rx="1" ry="1" width="4" x="226.00000000000014" y="19.7"><title>2024-10-07</title></rect><rect fill="#a8e5aa" height="4" rx="1" ry="1" width="4" x="226.00000000000014" y="25.1"><title>2024-10-08 17.82 mins</title></rect><rect fill="#ace7ae" height="4" rx="1" ry="1" width="4" x="226.00000000000014" y="30.5"><title>2024-10-09 0.05 mins</title></rect><rect fill="#ace7ae" height="4" rx="1" ry="1" width="4" x="226.00000000000014" y="35.9"><title>2024-10-10 0.03 mins</title></rect><rect fill="#EBEDF0" height="4" rx="1" ry="1" width="4" x="226.00000000000014" y="41.300000000000004"><title>2024-10-11</title></rect><rect fill="#EBEDF0" height="4" rx="1" ry="1" width="4" x="226.00000000000014" y="46.699999999999996"><title>2024-10-12</title></rect><rect fill="#EBEDF0" height="4" rx="1" ry="1" width="4" x="226.00000000000014" y="52.1"><title>2024-10-13</title></rect><rect fill="#a8e5aa" height="4" rx="1" ry="1" width="4" x="231.40000000000015" y="19.7"><title>2024-10-14 18.47 mins</title></rect><rect fill="#a9e6ab" height="4" rx="1" ry="1" width="4" x="231.40000000000015" y="25.1"><title>2024-10-15 14.5 mins</title></rect><rect fill="#EBEDF0" height="4" rx="1" ry="1" width="4" x="231.40000000000015" y="30.5"><title>2024-10-16</title></rect><rect fill="#549F57" height="4" rx="1" ry="1" width="4" x="231.40000000000015" y="35.9"><title>2024-10-17 143.35 mins</title></rect><rect fill="#EBEDF0" height="4" rx="1" ry="1" width="4" x="231.40000000000015" y="41.300000000000004"><title>2024-10-18</title></rect><rect fill="#aae6ac" height="4" rx="1" ry="1" width="4" x="231.40000000000015" y="46.699999999999996"><title>2024-10-19 7.47 mins</title></rect><rect fill="#EBEDF0" height="4" rx="1" ry="1" width="4" x="231.40000000000015" y="52.1"><title>2024-10-20</title></rect><rect fill="#67bf6b" height="4" rx="1" ry="1" width="4" x="236.80000000000015" y="19.7"><title>2024-10-21 45.65 mins</title></rect><rect fill="#EBEDF0" height="4" rx="1" ry="1" width="4" x="236.80000000000015" y="25.1"><title>2024-10-22</title></rect><rect fill="#EBEDF0" height="4" rx="1" ry="1" width="4" x="236.80000000000015" y="30.5"><title>2024-10-23</title></rect><rect fill="#549F57" height="4" rx="1" ry="1" width="4" x="236.80000000000015" y="35.9"><title>2024-10-24 119.25 mins</title></rect><rect fill="#a8e5aa" height="4" rx="1" ry="1" width="4" x="236.80000000000015" y="41.300000000000004"><title>2024-10-25 17.65 mins</title></rect><rect fill="#EBEDF0" height="4" rx="1" ry="1" width="4" x="236.80000000000015" y="46.699999999999996"><title>2024-10-26</title></rect><rect fill="#EBEDF0" height="4" rx="1" ry="1" width="4" x="236.80000000000015" y="52.1"><title>2024-10-27</title></rect><rect fill="#EBEDF0" height="4" rx="1" ry="1" width="4" x="242.20000000000016" y="19.7"><title>2024-10-28</title></rect><rect fill="#EBEDF0" height="4" rx="1" ry="1" width="4" x="242.20000000000016" y="25.1"><title>2024-10-29</title></rect><rect fill="#EBEDF0" height="4" rx="1" ry="1" width="4" x="242.20000000000016" y="30.5"><title>2024-10-30</title></rect><rect fill="#abe6ad" height="4" rx="1" ry="1" width="4" x="242.20000000000016" y="35.9"><title>2024-10-31 6.0 mins</title></rect><rect fill="#67bf6c" height="4" rx="1" ry="1" width="4" x="242.20000000000016" y="41.300000000000004"><title>2024-11-01 31.32 mins</title></rect><rect fill="#ace7ae" height="4" rx="1" ry="1" width="4" x="242.20000000000016" y="46.699999999999996"><title>2024-11-02 0.22 mins</title></rect><rect fill="#EBEDF0" height="4" rx="1" ry="1" width="4" x="242.20000000000016" y="52.1"><title>2024-11-03</title></rect><text fill="#000000" style="font-size:2.5px; font-family:Arial" x="247.60000000000016" y="18.3">Nov</text><rect fill="#549F57" height="4" rx="1" ry="1" width="4" x="247.60000000000016" y="19.7"><title>2024-11-04 102.8 mins</title></rect><rect fill="#EBEDF0" height="4" rx="1" ry="1" width="4" x="247.60000000000016" y="25.1"><title>2024-11-05</title></rect><rect fill="#EBEDF0" height="4" rx="1" ry="1" width="4" x="247.60000000000016" y="30.5"><title>2024-11-06</title></rect><rect fill="#ace7ae" height="4" rx="1" ry="1" width="4" x="247.60000000000016" y="35.9"><title>2024-11-07 0.4 mins</title></rect><rect fill="#EBEDF0" height="4" rx="1" ry="1" width="4" x="247.60000000000016" y="41.300000000000004"><title>2024-11-08</title></rect><rect fill="#EBEDF0" height="4" rx="1" ry="1" width="4" x="247.60000000000016" y="46.699999999999996"><title>2024-11-09</title></rect><rect fill="#549F57" height="4" rx="1" ry="1" width="4" x="247.60000000000016" y="52.1"><title>2024-11-10 112.9 mins</title></rect><rect fill="#EBEDF0" height="4" rx="1" ry="1" width="4" x="253.00000000000017" y="19.7"><title>2024-11-11</title></rect><rect fill="#EBEDF0" height="4" rx="1" ry="1" width="4" x="253.00000000000017" y="25.1"><title>2024-11-12</title></rect><rect fill="#a9e6ab" height="4" rx="1" ry="1" width="4" x="253.00000000000017" y="30.5"><title>2024-11-13 13.45 mins</title></rect><rect fill="#a8e5ab" height="4" rx="1" ry="1" width="4" x="253.00000000000017" y="35.9"><title>2024-11-14 16.53 mins</title></rect><rect fill="#EBEDF0" height="4" rx="1" ry="1" width="4" x="253.00000000000017" y="41.300000000000004"><title>2024-11-15</title></rect><rect fill="#EBEDF0" height="4" rx="1" ry="1" width="4" x="253.00000000000017" y="46.699999999999996"><title>2024-11-16</title></rect><rect fill="#67bf6c" height="4" rx="1" ry="1" width="4" x="253.00000000000017" y="52.1"><title>2024-11-17 32.03 mins</title></rect><rect fill="#ace7ae" height="4" rx="1" ry="1" width="4" x="258.40000000000015" y="19.7"><title>2024-11-18 0.08 mins</title></rect><rect fill="#a8e5aa" height="4" rx="1" ry="1" width="4" x="258.40000000000015" y="25.1"><title>2024-11-19 20.78 mins</title></rect><rect fill="#EBEDF0" height="4" rx="1" ry="1" width="4" x="258.40000000000015" y="30.5"><title>2024-11-20</title></rect><rect fill="#67bf6c" height="4" rx="1" ry="1" width="4" x="258.40000000000015" y="35.9"><title>2024-11-21 38.75 mins</title></rect><rect fill="#EBEDF0" height="4" rx="1" ry="1" width="4" x="258.40000000000015" y="41.300000000000004"><title>2024-11-22</title></rect><rect fill="#EBEDF0" height="4" rx="1" ry="1" width="4" x="258.40000000000015" y="46.699999999999996"><title>2024-11-23</title></rect><rect fill="#ace7ae" height="4" rx="1" ry="1" width="4" x="258.40000000000015" y="52.1"><title>2024-11-24 0.1 mins</title></rect><rect fill="#a8e5aa" height="4" rx="1" ry="1" width="4" x="263.8000000000001" y="19.7"><title>2024-11-25 20.12 mins</title></rect><rect fill="#EBEDF0" height="4" rx="1" ry="1" width="4" x="263.8000000000001" y="25.1"><title>2024-11-26</title></rect><rect fill="#ace7ae" height="4" rx="1" ry="1" width="4" x="263.8000000000001" y="30.5"><title>2024-11-27 1.17 mins</title></rect><rect fill="#549F57" height="4" rx="1" ry="1" width="4" x="263.8000000000001" y="35.9"><title>2024-11-28 155.88 mins</title></rect><rect fill="#a7e5a9" height="4" rx="1" ry="1" width="4" x="263.8000000000001" y="41.300000000000004"><title>2024-11-29 25.47 mins</title></rect><rect fill="#a9e6ab" height="4" rx="1" ry="1" width="4" x="263.8000000000001" y="46.699999999999996"><title>2024-11-30 14.0 mins</title></rect><rect fill="#EBEDF0" height="4" rx="1" ry="1" width="4" x="263.8000000000001" y="52.1"><title>2024-12-01</title></rect><text fill="#000000" style="font-size:2.5px; font-family:Arial" x="269.2000000000001" y="18.3">Dec</text><rect fill="#abe7ad" height="4" rx="1" ry="1" width="4" x="269.2000000000001" y="19.7"><title>2024-12-02 2.38 mins</title></rect><rect fill="#EBEDF0" height="4" rx="1" ry="1" width="4" x="269.2000000000001" y="25.1"><title>2024-12-03</title></rect><rect fill="#64bc69" height="4" rx="1" ry="1" width="4" x="269.2000000000001" y="30.5"><title>2024-12-04 85.55 mins</title></rect><rect fill="#aae6ac" height="4" rx="1" ry="1" width="4" x="269.2000000000001" y="35.9"><title>2024-12-05 8.78 mins</title></rect><rect fill="#ace7ae" height="4" rx="1" ry="1" width="4" x="269.2000000000001" y="41.300000000000004"><title>2024-12-06 1.28 mins</title></rect><rect fill="#ace7ae" height="4" rx="1" ry="1" width="4" x="269.2000000000001" y="46.699999999999996"><title>2024-12-07 0.18 mins</title></rect><rect fill="#EBEDF0" height="4" rx="1" ry="1" width="4" x="269.2000000000001" y="52.1"><title>2024-12-08</title></rect><rect fill="#EBEDF0" height="4" rx="1" ry="1" width="4" x="274.6000000000001" y="19.7"><title>2024-12-09</title></rect><rect fill="#EBEDF0" height="4" rx="1" ry="1" width="4" x="274.6000000000001" y="25.1"><title>2024-12-10</title></rect><rect fill="#EBEDF0" height="4" rx="1" ry="1" width="4" x="274.6000000000001" y="30.5"><title>2024-12-11</title></rect><rect fill="#EBEDF0" height="4" rx="1" ry="1" width="4" x="274.6000000000001" y="35.9"><title>2024-12-12</title></rect><rect fill="#EBEDF0" height="4" rx="1" ry="1" width="4" x="274.6000000000001" y="41.300000000000004"><title>2024-12-13</title></rect><rect fill="#EBEDF0" height="4" rx="1" ry="1" width="4" x="274.6000000000001" y="46.699999999999996"><title>2024-12-14</title></rect><rect fill="#EBEDF0" height="4" rx="1" ry="1" width="4" x="274.6000000000001" y="52.1"><title>2024-12-15</title></rect><rect fill="#EBEDF0" height="4" rx="1" ry="1" width="4" x="280.00000000000006" y="19.7"><title>2024-12-16</title></rect><rect fill="#EBEDF0" height="4" rx="1" ry="1" width="4" x="280.00000000000006" y="25.1"><title>2024-12-17</title></rect><rect fill="#EBEDF0" height="4" rx="1" ry="1" width="4" x="280.00000000000006" y="30.5"><title>2024-12-18</title></rect><rect fill="#EBEDF0" height="4" rx="1" ry="1" width="4" x="280.00000000000006" y="35.9"><title>2024-12-19</title></rect><rect fill="#EBEDF0" height="4" rx="1" ry="1" width="4" x="280.00000000000006" y="41.300000000000004"><title>2024-12-20</title></rect><rect fill="#EBEDF0" height="4" rx="1" ry="1" width="4" x="280.00000000000006" y="46.699999999999996"><title>2024-12-21</title></rect><rect fill="#EBEDF0" height="4" rx="1" ry="1" width="4" x="280.00000000000006" y="52.1"><title>2024-12-22</title></rect><rect fill="#EBEDF0" height="4" rx="1" ry="1" width="4" x="285.40000000000003" y="19.7"><title>2024-12-23</title></rect><rect fill="#EBEDF0" height="4" rx="1" ry="1" width="4" x="285.40000000000003" y="25.1"><title>2024-12-24</title></rect><rect fill="#EBEDF0" height="4" rx="1" ry="1" width="4" x="285.40000000000003" y="30.5"><title>2024-12-25</title></rect><rect fill="#EBEDF0" height="4" rx="1" ry="1" width="4" x="285.40000000000003" y="35.9"><title>2024-12-26</title></rect><rect fill="#EBEDF0" height="4" rx="1" ry="1" width="4" x="285.40000000000003" y="41.300000000000004"><title>2024-12-27</title></rect><rect fill="#EBEDF0" height="4" rx="1" ry="1" width="4" x="285.40000000000003" y="46.699999999999996"><title>2024-12-28</title></rect><rect fill="#EBEDF0" height="4" rx="1" ry="1" width="4" x="285.40000000000003" y="52.1"><title>2024-12-29</title></rect><rect fill="#EBEDF0" height="4" rx="1" ry="1" width="4" x="290.8" y="19.7"><title>2024-12-30</title></rect><rect fill="#EBEDF0" height="4" rx="1" ry="1" width="4" x="290.8" y="25.1"><title>2024-12-31</title></rect></svg>